<?xml version="1.0" encoding="UTF-8"?><svg xmlns="http://www.w3.org/2000/svg" viewBox="0 0 929.79 928"><defs><style>.e{fill:#e7018a;}.f{fill:#8d2b8d;}.g{fill:#e9393a;}.h{fill-rule:evenodd;}.h,.i{fill:#414c56;}.j{fill:#697179;}.k{fill:#f3922c;}.l{fill:#234297;}.m{fill:#41b44d;}.n{fill:none;stroke:#000;stroke-miterlimit:10;stroke-width:21px;}.o{fill:#2aacdf;}.p{fill:#fedb33;}</style></defs><g id="a"><polyline class="n" points="673.76 359.79 673.76 49.86 55.25 49.86 55.25 668.37 365.18 668.37"/><rect class="j" x="623.9" width="99.72" height="99.72" rx="15.3" ry="15.3"/><rect class="j" x="5.39" width="99.72" height="99.72" rx="15.3" ry="15.3"/><rect class="j" y="618.51" width="99.72" height="99.72" rx="15.3" ry="15.3"/></g><g id="b"><g transform="matrix(1, 0, 0, 1, -8.5, -5.5)"><path id="c" class="h" d="M516.1,401.56l30.99-17.52c-12.2-12.2-15.55-15.38-24.21-22.67-8.02-7.29-17.47-12.83-27.74-16.26-14.37-4.34-29.7-4.34-44.07,0-10.28,3.44-19.72,8.98-27.74,16.26-8.65,7.29-18.51,17.14-30.74,29.37l-.49,.49c-9.15,9.15-15.25,15.23-20.21,19.34-2.21,2.24-4.92,3.91-7.91,4.88-3.69,.65-7.48-.09-10.67-2.06-2.42-2.01-4.31-4.58-5.53-7.48-3.09-5.65-6.49-13.55-11.59-25.47l-1.63-3.81-.37-.85h0c-11.13-25.95-19.96-46.59-28.58-61.91-7.05-14.67-18.39-26.86-32.53-34.93-12.57-6.3-26.64-9.01-40.66-7.82-16.11,2.24-31.15,9.33-43.14,20.33-13.69,11.02-29.57,26.9-49.54,46.87h0l-.66,.66-1.65,1.76v43.14l23.28-23.28c20.78-20.78,35.51-35.47,47.76-45.33,7.28-7.12,16.52-11.9,26.54-13.73,8.41-.72,16.85,.91,24.39,4.69,8.64,5.41,15.46,13.28,19.58,22.61,7.71,13.7,15.92,32.81,27.5,59.82l1.63,3.81,.3,.68h0c4.73,11.03,8.7,20.33,12.56,27.36,3.67,7.59,9.28,14.08,16.26,18.81,9.55,5.91,20.94,8.11,32,6.17,8.24-1.8,15.86-5.74,22.09-11.42,6.21-5.14,13.34-12.2,21.82-20.75l.53-.53c12.82-12.82,21.77-21.68,29.3-28.09,4.86-4.6,10.61-8.14,16.9-10.41,8.62-2.6,17.82-2.6,26.44,0,6.29,2.27,12.04,5.81,16.9,10.41"/></g><g><path d="M928.13,604.43l.23,6.25,.03,.71,.07,3.61c.8,7.19,1.5,14.38,1.3,21.62v10.82c-.23,4.8-.46,9.6-.69,14.4l-.29,2.84c-.14,.05-.19,.15-.17,.3l-.03,.22c-.55,.76-.33,1.59-.23,2.41l-.02,1.47c-.12,3.65-.73,7.23-1.42,10.8l-.09,3.61c-.67,.86-.62,1.88-.63,2.88l-.16,1.41-.45,1.48c-.85,4.33-1.7,8.66-2.55,12.98l-.18,.21-.1,.21-.2,.99-.21,2.66-.05,.08c-.76,.63-.51,1.5-.55,2.3-2.53,8.39-5.06,16.78-7.59,25.17-1.46,3.58-3.12,7.08-3.99,10.88-.58,.55-.79,1.22-.72,2-1.49,2.15-2.55,4.48-2.9,7.1-2.04,4.19-4.07,8.39-6.11,12.58-.53,1.21-1.77,2.12-1.57,3.65-1.72,1.82-2.53,4.13-3.46,6.38-.24,.11-.33,.29-.28,.54-.19,.13-.33,.31-.4,.53l-.08,.08-.63,1.56,.08-.08-.49,.87c-1.63,1.87-3.12,3.83-3.64,6.34-1.17,1.04-1.91,2.38-2.56,3.78-1.89,2.38-3.36,5.01-4.68,7.72-8.06,11.49-16.55,22.65-25.6,33.38-.34,.38-.68,.75-1.02,1.13-3.12,3.25-6.24,6.5-9.36,9.75-.72,.21-1.2,.66-1.39,1.39-3.2,3.12-6.4,6.24-9.6,9.37-.42,.37-.85,.75-1.27,1.12-3.67,3.16-7.33,6.33-11,9.49-7.6,5.54-15.2,11.08-22.8,16.62-2.54,.9-4.47,2.74-6.6,4.27-1.57,1-3.15,2-4.72,3-3.13,1.5-6.26,3-9.03,5.14-2.35,1.23-4.7,2.47-7.05,3.7l-2.34,1.34c-.09-.01-.18-.05-.27-.03-.17,.04-.33,.12-.49,.18-.16,.02-.28,.1-.36,.24-3.68,1.78-7.35,3.56-11.03,5.34-2.45,.3-4.46,1.58-6.49,2.84-1.73,.65-3.46,1.3-5.19,1.95-3.35,1.29-6.9,2.07-10.04,3.91-7.39,2.22-14.79,4.45-22.18,6.67-3.26,.85-6.52,1.7-9.78,2.55-3.73,.77-7.46,1.54-11.19,2.3l-1.41,.19c-.74,.16-1.49,.32-2.23,.47-.7,.08-1.4,.16-2.1,.25-.79-.08-1.55,0-2.2,.54-.96,.08-1.92,.16-2.89,.24-1.54,.17-3.08,.33-4.62,.51-5.91,.71-11.82,1.42-17.72,2.14-3.11,.07-6.23,.13-9.34,.2-6.71,0-13.43,.02-20.14,.02h-.78c-1.12-.1-2.24-.19-3.36-.28-.61-.79-1.51-.63-2.31-.61-6.79,.13-13.54-.38-20.26-1.38-1.18-.07-2.36-.14-3.53-.21-.51-.13-1.02-.25-1.53-.38l-.7-.13c-.67-.13-1.34-.25-2.01-.38-3.65-.59-7.31-1.17-10.96-1.76l-1.97-.2-.06-.03c-2.27-.9-4.66-1.26-7.06-1.54-4.51-1.28-9.02-2.56-13.53-3.84l-.24-.06c-.31-.03-.62-.06-.93-.1-.67-.13-1.34-.27-2.01-.4-2.19-.71-4.38-1.42-6.58-2.13-3.57-1.23-7.15-2.45-10.72-3.68-3.78-1.46-7.57-2.91-11.35-4.37-3.21-1.31-6.43-2.63-9.64-3.95-3.67-2.32-7.6-4.13-11.62-5.75-1.17-.64-2.34-1.27-3.51-1.91l-7.3-3.89c-6.96-4.31-13.92-8.62-20.88-12.92-.7-1.07-1.77-1.61-2.91-2.07-.1-.23-.26-.28-.48-.16-.4-.36-.8-.73-1.2-1.09l-.14-.15c-2.5-1.79-5-3.58-7.5-5.38-10.87-8.54-21.01-17.9-30.93-27.51-2.83-3.03-5.62-6.11-8.5-9.09-7.19-7.44-13.16-15.89-19.67-23.89-1.92-2.68-3.84-5.36-5.76-8.04,.13-.22,.08-.38-.15-.48-.13-.74-.53-1.29-1.18-1.66h0c-4.4-7.37-8.8-14.74-13.2-22.1l-10.4-21c-2.96-7.45-5.92-14.9-8.87-22.34-.6-3.48-1.88-6.75-3.15-10.03-1.58-6.03-3.15-12.07-4.73-18.1-.06-1.24,.07-2.52-.92-3.52-.46-3.67-1.12-7.29-2.23-10.82-.52-3.6-1.05-7.19-1.57-10.79-.93-3.64,.29-7.49-1.12-11.08l-.91-10.56-.11-10.84v-10.78l.06-10.84c.08-3.77,.17-7.53,.25-11.3,1.53-2.56,1.45-5.35,1.21-8.17,.14-.22,.15-.45,.03-.69v-1.46l1.38-10.79,.27-1.98,.03-.06c1.01-1.33,1.05-2.92,1.18-4.48,.14-.22,.15-.45,.03-.69l.42-3.46c1.74-7.24,3.49-14.48,5.23-21.72,.76-3.7,3.16-6.94,3.11-10.87,1.67-3.47,2.66-7.17,3.76-10.83l.18-.27c1.34-3.46,2.69-6.92,4.03-10.38,1.65-3.65,3.3-7.31,4.96-10.96,1.05-1.5,1.94-3.06,2.25-4.9,1.41-1.11,1.8-2.77,2.31-4.36,2.14-4.11,4.29-8.21,6.43-12.32,.59-.22,.61-.73,.62-1.24l.7-.99,.06-.18,5.4-8.36c4.68-6.88,9.36-13.76,14.04-20.64,1.23-1.12,2.36-2.32,2.99-3.9,2.22-2.08,4.02-4.49,5.65-7.04,2.05-1.7,3.76-3.7,5.21-5.92,1.56-1.47,3.2-2.87,4.21-4.81,2.19-2.25,4.37-4.49,6.56-6.74,1.62-1.16,3.04-2.53,4.21-4.16,2.28-2.19,4.57-4.37,6.85-6.56,1.84-.95,3.26-2.4,4.68-3.85,2.11-1.83,4.21-3.66,6.32-5.48,2.63-1.34,4.61-3.48,6.7-5.49,1.37-.99,2.73-1.98,4.1-2.96,6.81-4.69,13.61-9.37,20.42-14.06l.05-.02c.27,.04,.45-.07,.54-.33,2.65-1.58,5.3-3.16,7.95-4.74,1.07,.28,1.55-.51,2.12-1.16,6.03-3.2,12.06-6.4,18.09-9.6,1.32-.23,2.55-.66,3.58-1.56,3.74-1.3,7.45-2.69,10.89-4.69l21.74-7.82c3.72-.53,7.22-1.73,10.63-3.26,6.82-1.55,13.63-3.1,20.45-4.65,1.15-.26,2.3-.54,3.45-.82,2.99-.22,5.94-.63,8.78-1.62,3.62,.07,7.14-.68,10.66-1.38l6.41-.25,.69-.05,.81-.22,1.4-.31,1.43-.17c3.63,.18,7.21-.29,10.8-.69h21.63c1.91,.07,3.82,.6,5.74,.15,1.25,.49,2.54,.54,3.86,.4h-.05c3.99,.75,8,1.35,12.08,.89l2.07,.25c.92,.6,1.94,.53,2.96,.4l2.14,.27,.68,.23c.95,.47,1.95,.51,2.97,.28,3.69,1.01,7.45,1.59,11.25,1.95h.03c.32,.06,.63,.11,.95,.16,6.04,1.49,12.02,3.24,18.24,3.86,3.87,1.51,7.85,2.68,11.91,3.53,3.85,1.26,7.7,2.52,11.55,3.79l2.2,.88c2.44,.9,4.88,1.8,7.32,2.71,4.05,1.76,8.09,3.53,12.14,5.29,1.23,.57,2.46,1.13,3.7,1.7,3.49,1.15,6.31,3.71,9.88,4.67l-.06-.09c1.4,.77,2.81,1.55,4.21,2.32l.09,.05,.85,.32c.73,1,1.66,1.62,2.94,1.62l5.08,2.92c1.47,1.15,2.82,2.53,4.83,2.71,3.58,2.9,7.66,4.99,11.58,7.35,3.82,2.76,7.18,6.22,11.75,7.86,.66,1.24,1.32,2.49,2.89,2.78,2.13,1.68,4.25,3.35,6.38,5.03l16.32,14.38,1.04,.94-.15-.13,.84,.84-.12-.11,.84,.83-.1-.08c.96,1.48,2.18,2.7,3.66,3.66l-.08-.09,.83,.84-.12-.12,.84,.84-.12-.12c.06,.5,.34,.78,.84,.84l-.12-.12,.84,.84-.12-.12,.84,.84-.12-.12,.84,.84-.12-.12,.84,.84-.13-.15,.96,1.05c0,.72,.36,1.06,1.07,1.07,1.28,1.37,2.56,2.75,3.84,4.12,2.19,2.51,4.37,5.03,6.56,7.54,1.12,1.95,2.57,3.6,4.3,5.03l-.06-.06,1.55,2.16-.05-.08,.79,.82-.09-.1,.83,1.12c-.11,1.05,.66,1.46,1.38,1.91,2.16,3,4.31,5.99,6.47,8.99l.1,.19c.25,.72,.62,1.34,1.38,1.63,4.4,7.1,8.79,14.19,13.19,21.29,3.8,7.26,7.6,14.52,11.39,21.78,3.07,7.61,6.14,15.22,9.2,22.83,.22,2.46,1.4,4.57,2.42,6.74l.21,.99h-.02c2.2,7.66,4.39,15.3,6.59,22.95l.43,2.02,.19,.97,.04,.2-.02,.2,.12,.16,.39,1.34,.1,.9c-.13,.25-.07,.45,.16,.59l.03,.09,.5,2.74c.85,4.35,1.69,8.7,2.54,13.04l.25,4.25,.05,.69c.44,1.76,.27,3.66,1.21,5.31Zm-361.95,291.54l.89,.1c5.01,1.67,10.06,3.19,15.34,3.79,.29,.46,.71,.62,1.23,.52,.48,.05,.96,.09,1.45,.14,4.45,1.49,9.12,1.87,13.7,2.72,1.16,.13,2.32,.25,3.49,.38l.84,.34c1.41,.12,2.82,.24,4.23,.37,3.63,.48,7.21,1.35,10.92,1.12,.94,.08,1.89,.17,2.83,.25,.38,.02,.76,.04,1.14,.06,2.24,.97,4.56,.41,6.86,.42,6.03,.32,12.06,.8,18.11,.31,1.17-.1,2.34-.19,3.51-.29,3.63,.1,7.25,.25,10.84-.52,2.19-.36,4.5,.43,6.62-.65l.09-.07c1.36-.09,2.72-.17,4.08-.26l11.34-1.5v-.02l1.05-.18c.92-.15,1.84-.31,2.76-.46,.23,.12,.45,.1,.67-.04,1.9-.62,4.02-.24,5.81-1.35,7.65-1.14,15.12-3.03,22.46-5.47,1.23-.16,2.46-.29,3.5-1.06,.11,.03,.24,.1,.33,.08,.22-.05,.42-.16,.63-.24l.08-.02c.69-.25,1.39-.5,2.08-.75l.23-.06c.15,.01,.24-.06,.27-.21,.8-.14,1.75,.14,2.3-.76,4.74-1.26,9.34-2.9,13.75-5.06,1.33,.02,2.4-.6,3.44-1.33,2.12-.86,4.25-1.71,6.37-2.57,3.21-1.44,6.53-2.65,9.49-4.59,3.44-1.42,6.74-3.1,9.84-5.17,.33-.13,.65-.26,.98-.39,7.77-4.25,15.47-8.62,22.49-14.06,3.13-1.49,5.75-3.71,8.41-5.86,.88-.68,1.76-1.35,2.65-2.03,7.28-5.23,14.08-11.04,20.47-17.32,.99-.99,1.97-1.97,2.96-2.96,3.15-3.07,6.47-5.98,9.42-9.23,6.3-6.93,12.74-13.77,17.92-21.64,1.34-.94,2.04-2.37,2.86-3.71,1.64-1.98,3.39-3.88,4.38-6.31,5.54-7.29,10.19-15.13,14.36-23.26,1.06-1.23,1.92-2.56,2.19-4.2,1.71-2.2,2.72-4.77,3.8-7.31,1.67-2.95,3.31-5.92,4.15-9.24,3.6-7.19,6.44-14.67,8.66-22.4,1.75-3.72,2.87-7.64,3.61-11.67,2.59-7.09,3.77-14.53,5.46-21.84l.26-2.66c.62-.61,.65-1.38,.58-2.17l.19-2.13,.49-1.47,.07-2.19c1-3.53,1.34-7.15,1.44-10.8,.24-.9,.65-1.79,.34-2.76,.68-.67,.38-1.49,.35-2.27l.26-5.72c1.02-3.58,.51-7.24,.52-10.87l.2-2.09c.81-6.52-.15-13.02-.25-19.53,.08-1.83,.47-3.67-.4-5.43v-1.17l-.33-4.23c-.26-3.62-.42-7.26-1.37-10.8l-.08-2.18c.11-.23,.1-.45-.02-.67l-.71-4.37c.05-.78,.08-1.56-.56-2.17l-.14-1.43c-.83-7.4-3.2-14.47-4.7-21.73l-.34-1.35-.17-.97-.11-.23c.01-.15-.06-.24-.21-.27l-.23-1.41-.95-3.12-.05-.24c.01-.15-.06-.24-.21-.27-.1-1.01,.02-2.09-.88-2.84-.91-4.35-2.39-8.52-4.18-12.58-.53-2.71-1.59-5.22-2.84-7.66l-.5-1.57c-1.48-3.58-2.69-7.28-4.71-10.63-3.44-8.11-7.44-15.93-12.14-23.39-.96-2.57-2.53-4.79-4.1-7-1.03-1.59-2.06-3.18-3.09-4.77-3.9-6.42-8.21-12.54-13.08-18.27l-.71-.73,.04,.04c-1.33-2.57-3.52-4.48-5.22-6.77-.05-.16-.15-.26-.31-.31l-1.01-.91-.5-.69-1.68-2.11h0c-2.64-2.88-5.28-5.78-7.92-8.68v.03l-1.43-1.54-.65-.64c-2.76-3.03-5.55-6.03-8.78-8.58l-.02-.02c-.44-.86-1.22-1.32-2.06-1.71l-.54-.54c-2.36-2.61-5.03-4.88-7.82-7.02-.36-.28-.71-.57-1.07-.85-1.19-.97-2.38-1.94-3.57-2.92l-5.87-4.65c-.07-.26-.24-.37-.51-.34l-.06-.04c-6.35-5.1-12.9-9.9-20.11-13.72-1.74-1.54-3.71-2.72-5.86-3.59-1.48-1.43-3.29-2.32-5.19-3.05-3.87-2.47-7.91-4.61-12.17-6.33-.79-.82-1.75-1.31-2.89-1.41-2.95-1.8-6.1-3.16-9.37-4.27-.12-.19-.28-.23-.48-.13-.18-.42-.47-.65-.95-.57l-6.56-2.76c-7.51-3.01-15.16-5.59-22.94-7.79-3.57-.96-7.15-1.92-10.72-2.88-3.66-.8-7.31-1.61-10.97-2.41l-2.01-.45-.87-.23-3.44-.52-4.42-.76c-2.89-.45-5.74-1.28-8.72-1.07-4.28-.89-8.61-1.4-12.99-1.32l-2.13-.16c-2-.54-4.01-.77-6.07-.42l-2.01-.11c-3.81-.02-7.61-.03-11.42-.05l-10.84,.07-10.79,.7c-3.29,.14-6.56,.38-9.78,1.12-7.65,.75-15.24,1.84-22.67,3.82-1.79-.32-3.35,.74-5.06,.87l-.83,.34-2.05,.38-.83,.34-2.05,.38-12.92,3.63c-6.61,2.06-13.24,4.08-19.51,7.07-7.58,2.52-14.71,6.07-21.81,9.67-7.68,3.71-15.13,7.82-22.17,12.64-3.74,2.18-7.39,4.5-10.76,7.23-7.77,5.13-15.14,10.77-21.9,17.2-1.74,.78-3.05,2.06-4.14,3.59-2.15,1.97-4.29,3.93-6.44,5.9-1.9,1.45-3.58,3.13-5.03,5.03-2.37,1.78-4.07,4.19-5.96,6.42-1.37,1.13-2.74,2.26-3.63,3.84-6.4,7.11-12.48,14.47-17.71,22.5-2.81,3.51-5.39,7.17-7.51,11.15-1.05,.72-1.36,1.93-1.95,2.95l-.81,1.41c-.64,.24-.71,.83-.83,1.38-1.24,1.51-2.24,3.16-2.92,4.99l.05-.05c-.78,.58-1.15,1.4-1.35,2.33-.66,.25-.67,.85-.74,1.4h.01c-1.75,2.11-2.77,4.64-3.95,7.08-.59,1.26-1.18,2.52-1.77,3.78-1.08,1.45-2.02,2.97-2.25,4.82-2.42,4.15-4.29,8.54-5.73,13.12-3.17,6.56-5.53,13.42-7.38,20.46-1.76,4.37-2.75,8.96-3.97,13.49-.13,.69-.25,1.37-.38,2.06-.11,.27-.23,.55-.34,.82-.13,.69-.25,1.37-.38,2.06l-.34,.82c-.25,1.21-.5,2.42-.75,3.63-1.55,7.14-3.03,14.3-3.63,21.6-.08,.71-.17,1.42-.25,2.13-.5,.66-.58,1.41-.44,2.2-.22,2.17-.44,4.35-.67,6.52-.24,3.59-.48,7.18-.72,10.77-.04,3.61-.08,7.23-.12,10.84,.02,3.6,.03,7.2,.05,10.79,.02,1.69,.03,3.38,.05,5.07l1.39,16.55c.03,2.83,.45,5.6,1.12,8.34l-.08,.21,.16,.17c.08,.71,.16,1.41,.25,2.12,1.12,7.89,2.47,15.74,4.7,23.4,.33,2.94,1.1,5.76,2.33,8.45,.68,3.97,2.03,7.75,3.4,11.52l.39,1.33c-.1,.52,.14,.88,.58,1.13,.31,2.17,.91,4.24,2.18,6.07,0,.95,.06,1.88,1,2.45l.15,.14c-.38,1.21,.28,2.08,.95,2.95,.58,2.65,1.57,5.13,2.99,7.44,3.15,8.07,6.95,15.82,11.45,23.23,1.11,3.15,2.93,5.9,4.87,8.57,.21,.52,.19,1.18,.88,1.39,.26,.47,.52,.94,.79,1.41l.68,.9c0,.56,.04,1.09,.7,1.28,2.26,4.1,4.85,7.98,7.79,11.63,.15,.94,.64,1.64,1.48,2.1,.36,.86,.71,1.73,1.58,2.22,.17,.23,.34,.46,.5,.69,2.44,3.57,4.9,7.13,8.04,10.14,.29,.87,.74,1.61,1.57,2.07,6.09,7.63,12.75,14.73,19.82,21.45,3.71,3.3,7.41,6.59,11.12,9.89l.55,.41c3.08,3.3,6.78,5.87,10.33,8.62,.22,.6,.72,.73,1.28,.74l.99,1.02c.06,.16,.17,.26,.34,.29,2.74,1.95,5.48,3.89,8.22,5.84,6.29,4.55,12.71,8.89,19.64,12.41,2.45,1.62,4.95,3.17,7.74,4.18,4.99,3.23,10.41,5.6,15.87,7.87,6.58,3.29,13.36,6.07,20.44,8.11,3.8,1.94,7.98,2.78,12,4.09l1.4,.28,.13,.13c.08,.2,.23,.28,.45,.24Z"/><path class="g" d="M781.17,845.55c-7.43,5.15-14.85,10.3-22.28,15.45-1.49,.94-2.61,.07-3.75-.75-2.28-1.62-4.41-3.47-6.99-4.63-1.24-.9-2.48-1.81-3.71-2.71-2.42-1.66-4.83-3.33-7.25-4.99-6.97-4.82-13.94-9.65-20.91-14.47-.92-1.06-2.07-1.79-3.37-2.29-2.4-1.68-4.8-3.37-7.21-5.05-7.3-5.55-14.89-10.69-22.56-15.71-.71-.49-1.41-.98-2.12-1.47-2.74-2.19-5.54-4.28-8.61-5.99-2.1-1.46-3.94-3.31-6.4-4.22-1.12-1.66-2.9-2.41-4.54-3.36-3.57-2.46-7.14-4.92-10.7-7.38-.27-.19-.55-.39-.82-.58-3.1-2.19-6.2-4.39-9.3-6.58-2.04-1.63-4.1-3.24-6.47-4.4-.54-1.87,1.06-1.69,2.01-1.99,1.19-.38,2.44-.56,3.66-.82,3.18-.58,6.35-1.17,9.53-1.75,.23-.13,.45-.27,.68-.4l-.05,.05c4.37-.4,8.61-1.48,12.87-2.45,6.78-1.41,13.57-2.82,20.35-4.22,3.81-.73,7.61-1.46,11.42-2.19l.81-.14c1.15-.52,2.57-.15,3.59-1.09l1.48-.19c9.56-1.93,19.13-3.86,28.69-5.79,3.03-.26,6-.82,8.84-1.92,3.4-.08,6.62-1.15,9.92-1.77l4.37-.8c1.13-.64,2.62-.06,3.64-1.06,.49-.06,.98-.12,1.47-.19,8.6-1.72,17.2-3.43,25.8-5.15,2.65-.76,5.5-.62,8.04-1.87l9.37-1.66c4.09-.87,8.29-1.26,12.25-2.73,9.1-1.76,18.2-3.52,27.29-5.28,1.67-.7,3.64-.18,5.21-1.29,3.64-.44,7.21-1.18,10.73-2.21,.73-.07,1.45-.13,2.18-.2l3.64-1.06c.49-.06,.99-.12,1.48-.18,4.5-.81,8.99-1.63,14.01-2.53-.69,1.53-1.22,2.57-1.63,3.65-1.96,5.09-5.21,9.59-6.81,14.84v-.09c-1.39,1.18-1.82,2.93-2.67,4.43-1.18,2.19-2.37,4.37-3.55,6.56-2.2,3.82-4.4,7.64-6.6,11.45-.33,.47-.65,.93-.98,1.4-1.85,2.87-3.69,5.73-5.54,8.6-8.03,11.56-16.73,22.58-26.46,32.76-10.23,9.98-21.09,19.26-31.95,28.54-2.45,1.91-5.15,3.5-7.28,5.81-1.27,.23-2.05,1.13-2.81,2.06Z"/><path class="o" d="M455.39,474.47c4.51-3.37,7.96-7.86,12.13-11.59,3.35-3.41,7.56-5.92,10.36-9.9l-.18-.14,.16,.15c7.14-5.64,14.29-11.27,21.43-16.91,1.88-1.13,3.67-2.39,5.1-4.09,2.15-1.48,4.29-2.95,6.44-4.43,3.42-2.39,6.83-4.77,10.25-7.16,.21-.02,.4-.11,.55-.27,2.47-2.27,4.64-1.54,7.1,.29,4.28,3.19,8.79,6.09,13.2,9.11,1.16,.79,2.32,1.58,3.49,2.37,2.67,1.88,5.35,3.76,8.02,5.64,1.44,1.03,2.86,2.08,4.33,3.08,5.97,4.07,11.96,8.12,17.94,12.17l.81,.62c3.12,2.19,6.23,4.38,9.35,6.56,7.07,4.98,14.14,9.95,21.22,14.92,3.71,2.5,7.42,5.01,11.13,7.52,1.69,1.18,3.38,2.35,5.07,3.53,1.61,1.87,3.85,2.84,5.84,4.18,6.69,4.67,13.38,9.34,20.46,14.28-3.57,.91-6.62,1.69-9.68,2.47-4.3,.78-8.61,1.57-12.91,2.35-2.86,.95-6,.7-8.76,2.06-4.05,.73-8.11,1.46-12.16,2.19l-8.05,1.68c-3.58,.83-7.29,1.12-10.73,2.54-.49,.03-.98,.07-1.47,.1-3.59,.71-7.18,1.43-10.77,2.14-3.44,.49-6.89,.97-10.18,2.17-4.33,.77-8.73,1.2-12.88,2.78-7.36,.71-14.51,2.49-21.65,4.29-2.99,.02-5.78,1.1-8.68,1.6-4.09,.85-8.32,1.1-12.23,2.73-3.72,.18-7.3,1.06-10.83,2.16-7.33,.91-14.52,2.57-21.67,4.35-3.37,.63-6.83,.88-10.06,2.18-3.79-.19-7.26,1.25-10.84,2.14-3.67,.37-7.28,1.02-10.78,2.19-7.32,.94-14.5,2.52-21.63,4.42-3.82,.72-7.65,1.44-11.47,2.15-2.08,.33-4.17,.67-6.36,1.02,.19-1.24,.36-2.26,.52-3.29,2.32-3.64,4.15-7.53,5.72-11.54,2.19-4.05,4.39-8.1,6.58-12.15,2.13-2.99,3.84-6.21,5.47-9.49,.16-.17,.27-.37,.31-.6,2.2-2.97,4.19-6.07,5.82-9.4,1.43-2.15,2.85-4.3,4.28-6.46,1.12-1.52,2.24-3.04,3.36-4.56,5.33-7.25,10.64-14.53,17.1-20.87,.29-.29,.3-.87,.45-1.31Z"/><path class="l" d="M553.37,424.76c-6.2-4.16-12.4-8.32-18.9-12.68,1.98-.76,3.6-1.38,5.22-2.01,.94-.48,2.17-.25,2.9-1.21,4.06-1.26,8.12-2.52,12.18-3.78,3.44-1.11,6.88-2.22,10.31-3.33,3.4-.76,6.9-1.15,10-2.92-.01,.27,.12,.4,.38,.39,4.16-.95,8.33-1.9,12.49-2.85,2.68-.52,5.36-1.03,8.03-1.55,4.98-.72,9.95-1.45,14.93-2.18,2.68-.76,5.58,.21,8.2-1.02,9.79-.02,19.59-.04,29.38-.07,1.91,.75,3.89,.65,5.88,.54l4.97,.08,1.37,.18c11.56,1.37,23.12,2.74,34.68,4.1,.46,.07,.92,.15,1.38,.22,1.48,.86,3.19,.44,4.75,.81,3.81,.79,7.6,1.74,11.44,2.32,2.38,.36,3.8,1.19,3.49,3.77-.32,2.62,1.07,4.88,1.44,7.35,.61,3.18,1.22,6.35,1.82,9.53,.64,3.55,.59,7.22,1.77,10.69l2.14,10.85,3.73,21.6c.25,1.46,.51,2.92,.76,4.38-.27,1.84,.04,3.54,1.15,5.06l.13,1.39c.47,2.91,.68,5.89,1.49,8.7,.55,1.92-1.22,4.29,1.17,5.78,.07,.46,.15,.92,.22,1.39l-.05,.33,.08,.32c-.18,.84,.02,1.59,.57,2.25-.34,.61-1.12,1.38-.64,1.93,2.76,3.19,1.73,7.34,2.51,10.93,1.25,5.71,2.71,11.45,3.35,17.31,.38,1.72,.77,3.44,1.15,5.16-.18,3.7,1.1,7.16,1.72,10.73-.6,3.57,2.19,6.71,1.3,10.32-5.29-3.43-10.58-6.86-15.87-10.29-3.6-2.4-7.21-4.8-10.81-7.2h0c-.72-.49-1.43-.98-2.15-1.46h0l-2.18-1.42h0l-.66-.5-.71-.31c-1.48-1.51-3.32-2.49-5.15-3.48-.45-.28-.9-.55-1.35-.83-.27-.21-.54-.42-.8-.63-.73-.47-1.46-.95-2.19-1.42-.71-.49-1.43-.97-2.14-1.46-.72-.48-1.44-.95-2.16-1.43-.71-.45-1.43-.9-2.14-1.36-.46-.3-.92-.6-1.37-.91-2.97-2.37-6.14-4.44-9.45-6.3-7.19-4.77-14.38-9.54-21.57-14.31-.16-.2-.37-.29-.62-.27-4.04-2.72-8.09-5.44-12.13-8.16-.58-.38-1.16-.76-1.75-1.14-.86-.62-1.58-1.47-2.72-1.61-1.21-1.37-2.79-2.21-4.38-3.04-2.46-2.4-5.79-3.46-8.47-5.53-.32-.24-.64-.48-.96-.72l.03,.02c-1.19-.79-2.39-1.57-3.58-2.36-2.8-2.02-5.5-4.18-8.65-5.67-2.21-1.96-4.73-3.44-7.29-4.87-4.61-3.41-9.42-6.53-14.36-9.44-.18-.63-.66-.77-1.23-.76-2.91-2.57-6.3-4.41-9.57-6.43l-.05-.04-.7-.57c-6.69-4.38-13.38-8.75-20.07-13.13-.77-1.06-1.98-1.48-3.05-2.09-2.65-2.26-5.67-3.96-8.64-5.72Z"/><path class="f" d="M730.02,419.62c-.94-4.77-1.88-9.54-2.82-14.31,3.41,.31,5.82,3.19,9.21,3.55,.26,.68,.89,.64,1.44,.75,3.42,1.81,6.83,3.63,10.25,5.44,6.96,3.94,13.93,7.87,20.89,11.81,7.41,5.08,14.83,10.16,22.24,15.24,.27,.2,.55,.4,.82,.61,3.31,2.73,6.63,5.45,9.94,8.18,.99,.89,1.99,1.78,2.98,2.67,2.15,2.4,4.17,4.94,7.03,6.59,1.29,1.39,2.59,2.77,3.88,4.16,2.14,2.62,4.36,5.16,7.01,7.29,.97,1.65,2.19,3.09,3.66,4.32l7.37,8.44c.5,.53,.99,1.05,1.49,1.58,5.48,7.21,10.96,14.42,16.43,21.64,1.43,1.97,2.86,3.93,4.3,5.9,.28,.47,.57,.93,.85,1.4,.2,.24,.4,.48,.59,.72l-.02-.02c.49,.71,.99,1.43,1.48,2.14h0c.7,1.1,1.24,2.34,2.12,3.26,2.45,2.58,2.49,5.09,.15,7.71-5.13,6.98-10.29,13.93-14.76,21.36-.91,.83-1.63,1.78-2.03,2.95-1.95,2.19-3.78,4.47-5.01,7.16-1.9,2.25-3.65,4.59-5,7.22-3.52,4.94-7.04,9.88-10.56,14.82-2.5,3.71-4.99,7.42-7.49,11.13-1.69,1.75-3.05,3.73-4.14,5.9-1.54,1.72-2.86,3.6-3.87,5.68-2.53,2.8-4.64,5.9-6.49,9.19-.41,.54-.81,1.09-1.22,1.63-1.97,2.89-3.94,5.77-5.92,8.66-1.76,1.93-3.17,4.1-4.36,6.42-1.29,2.03-3.37,3.49-4.2,5.85l-9.21,12.84c-.4-1.9-.71-3.39-1.02-4.89-.68-2.9-1.35-5.79-2.03-8.69-1.54-9.45-3.44-18.84-5.79-28.12l-.11-.75c-.99-5.24-1.98-10.48-2.97-15.72-.72-2.91-.75-5.97-2.01-8.75-1.01-5.8-1.8-11.65-3.61-17.28,.03-1.72-.02-3.43-.78-5.03-.54-3.16-.93-6.35-2.05-9.39-.76-3.83-1.52-7.67-2.28-11.5-.43-3.69-1.09-7.33-2.16-10.89-1.52-7.71-2.81-15.47-4.87-23.07-.36-2.18-.72-4.36-1.09-6.54-.92-4.53-1.84-9.06-2.76-13.58-.89-4.09-1.78-8.18-2.68-12.28-1.51-7.67-3.02-15.34-4.53-23-.3-2.78-.96-5.47-1.9-8.1l-2.39-12.83-2.01-9.46Z"/><path class="k" d="M704.79,878.95c-3.37,.75-6.74,1.5-10.11,2.24-7.45,1.38-14.89,2.77-22.34,4.15-3.6,.28-7.19,.57-10.79,.85-3.62,.22-7.24,.44-10.86,.66-3.59,0-7.18,0-10.78,.01-4.34-.22-8.68-.45-13.02-.67-1.6-.1-3.2-.2-4.79-.29-4.41-.38-8.81-.77-13.22-1.15-7.91-1.01-15.81-2.03-23.72-3.04-3.62-.67-7.24-1.34-10.85-2.01-3.23,.05-6.13-1.85-9.39-1.59-2.23-1.11-.99-3.43-1.76-5.04-1.49-2.69-.54-5.91-1.88-8.63-.61-3.88-.6-7.88-2.21-11.57-.51-4.97-1.16-9.91-2.74-14.67-.17-6.06-1.64-11.9-3.03-17.76-.03-4.19-1.37-8.15-2.1-12.21-1.05-3.07,.09-6.58-1.92-9.46,.13-3.7-1.07-7.18-1.77-10.73-.1-3.98-1.31-7.77-2.02-11.65-1.25-6.93-2.5-13.86-3.74-20.8-.58-4.43-1.01-8.89-2.59-13.13-.28-2.9-.08-5.89-1.55-8.57,.21-1.52-.53-3.13,.23-4.66,1.6,.45,2.41,1.9,3.94,1.86,1.71,1.19,3.43,2.37,5.14,3.56,2.05,1.61,4.1,3.22,6.5,4.3,7.09,4.81,14.1,9.75,21.53,14.04,1.06,1.35,2.46,2.16,4.08,2.64,2.26,2.06,4.73,3.8,7.51,5.1,7.07,5.01,14.19,9.94,21.64,14.38,1.01,.68,2.01,1.36,3.02,2.05,2.3,1.57,4.3,3.6,7.04,4.46,7.01,5.12,14.29,9.83,21.67,14.39,1.14,1.35,2.61,2.19,4.23,2.83,1.97,1.8,4.26,3.12,6.58,4.38,7.02,5.07,14.19,9.91,21.65,14.33,1.46,.97,2.91,1.94,4.37,2.91,1.75,2.03,4.31,2.81,6.46,4.23,7.21,4.8,14.42,9.61,21.63,14.41,1.48,.99,2.96,1.98,4.44,2.96,1.89,1.2,3.77,2.41,5.66,3.61,3.06,2.57,6.34,4.81,9.96,6.53,.23,.61,.73,.81,1.33,.85,3.35,3.03,7.3,5.19,11.07,7.61,1.89,1.26,3.78,2.52,5.66,3.77,.62,.46,1.24,.92,2.06,1.53-2.97,1.23-5.71,2.38-8.46,3.52-6.96,2.18-13.92,4.36-20.88,6.54-3.73,.56-7.33,1.61-10.86,2.93Z"/><path class="m" d="M393.95,605.57c.75-6.23,1.51-12.46,2.26-18.68,.04-.39,.08-.78,.13-1.17,1.42-5.05,2.21-10.21,2.75-15.41,1.77-1.84,.12-5.2,2.93-6.58,6.96-1.23,13.92-2.46,20.89-3.69,3.62-.67,7.35-.83,10.85-2.1,4.29-.72,8.59-1.45,12.88-2.17,3.39-.58,6.86-.77,10.12-2.04,7.43-1.26,14.87-2.52,22.3-3.79,3.11-.84,6.51-.35,9.44-2.01,3.69,.1,7.17-1.23,10.79-1.6,3.37-.67,6.74-1.34,10.1-2,3.9-.5,7.79-1.01,11.57-2.16,6.82-.68,13.52-2.05,20.18-3.6,2.18-.29,4.35-.56,6.53-.86,1.31-.18,1.68,.41,1.36,1.6-5.3,6.61-9.36,14.05-14.13,21.02-1.1,1.8-2.2,3.61-3.31,5.41-1.79,1.72-3,3.83-4.11,6.01-4.8,7.21-9.59,14.42-14.39,21.64-1.2,1.53-2.51,2.99-2.97,4.96-1.68,1.34-2.44,3.34-3.61,5.05-2.41,3.61-4.82,7.22-7.23,10.83-2.38,3.63-4.77,7.26-7.15,10.89-1.22,1.89-2.44,3.78-3.65,5.66-1.73,1.71-2.89,3.82-4.08,5.91-2.28,3.55-4.55,7.09-6.83,10.64-2.32,3.47-4.64,6.93-6.96,10.4-1.43,1.87-3.05,3.63-3.76,5.95-1.57,1.34-2.42,3.17-3.45,4.88-2.79,3.55-5.18,7.37-7.42,11.28-.18,.26-.37,.53-.55,.79-2.54,3.13-4.57,6.59-6.62,10.04-1.2,1.9-2.87,3.49-3.59,5.69-1.75,1.33-2.44,3.39-3.59,5.14-2.17,3.34-4.33,6.69-6.5,10.03l-.69,.9c-2.33,3.2-4.66,6.41-6.5,9.93-5.32,7.23-10.17,14.78-14.86,22.42-.22,.08-.35,.24-.41,.46-.38-.47-.76-.94-1.14-1.41-1.29-3.77-2.59-7.53-3.88-11.3-2.12-6.75-4.24-13.49-6.36-20.24-1-4.06-1.99-8.12-2.99-12.18-.55-2.93-.74-5.94-2.06-8.68-.76-4.54-1.51-9.09-2.27-13.63-.65-3.35-.24-6.84-1.33-10.13-.95-6.7-.66-13.46-.85-20.19l.02-11.57c.28-5.53,.56-11.06,.84-16.59,1.14-4.51,.56-9.18,1.33-13.73Z"/><path class="p" d="M553.32,873.7c-3.8-1.69-7.61-3.38-11.41-5.07-3.35-1.71-6.52-3.81-10.15-4.93h.01c-3.26-2.15-6.61-4.14-10.17-5.76-6.48-4.12-12.97-8.24-19.45-12.37-.97-.62-1.89-1.29-2.84-1.94-.92-.54-1.84-1.09-2.77-1.63-2.3-2.43-5.17-4.07-7.98-5.78-2.05-2.37-4.72-3.95-7.23-5.74-.91-1.83-2.32-3.1-4.3-3.69-3.02-3.69-6.5-6.91-10.17-9.94-2.3-2.49-4.19-5.38-7.1-7.27-.5-1.59-1.34-2.89-2.96-3.55-2-2.4-3.99-4.81-5.99-7.21-2.1-1.71-2.93-4.61-5.49-5.89-.45-1.82-2.27-2.63-3.09-4.18-.01-.77-.56-.88-1.15-.95h.04c-2.07-3.41-4.07-6.86-7.35-9.31-.1-.42-.19-.84-.29-1.26-4.96-7.04-10.48-13.7-14.64-21.29-.13-.23-.64-.26-.97-.38-.36-1.81,.22-3.24,1.3-4.78,1.13-1.62,2.84-2.98,3.12-5.14,1.51-.06,1.34-1.17,1.37-2.17,3.09-2.64,4.97-6.18,7.1-9.54,1.13-1.53,2.82-2.73,2.97-4.86,1.88-1.65,3.54-3.46,4.24-5.95,3.06-3.14,5.65-6.61,7.38-10.67v-.02c3.4-3.45,5.92-7.55,8.43-11.66,.21-1.11,1.85-1.38,1.61-2.75,2.48-1.99,3.82-4.84,5.58-7.37,4.76-7.26,10.3-14,14.54-21.61,1.7-.27,1.66-2.1,2.68-2.97,1.31-2.76,3.73-4.84,4.74-7.78,5.87-6.35,10.04-13.91,15-20.9,.66-.98,1.32-1.97,1.97-2.95,1.58-1.03,1.7-3.55,4-3.94,1.11,1.92-.63,4.63,1.76,6.12,.05,6.8,2.95,13.12,3.3,19.88,.03,.59,.73,1.15,1.12,1.73-.84,4.18,1.96,7.87,1.6,12-.06,.63,.64,.91,1.21,1.1,.21,2.89-.51,5.95,1.52,8.52,.36,1.95-1.02,4.3,1.35,5.78,.1,2.03-.25,4.2,.37,6.06,2.06,6.25,2.37,12.85,4.18,19.13v.74c1.24,3.78,1.13,7.89,2.81,11.56-.76,3.33,1.99,6.09,1.5,9.38,1.37,3.98,1.14,8.34,2.86,12.24-.58,3.99,1.15,7.73,2.03,11.4,.57,2.38-.69,5.68,2.16,7.46,.04,.92,.09,1.84,.13,2.76-.57,3.89,1.96,7.29,1.79,11.13,0,.15,.59,.33,.9,.5-.65,3.53,1.71,6.56,1.63,9.99,.4,3.73,.89,7.45,2.68,10.84,.09,7.08,3.11,13.7,3.35,20.77,.01,.31,.63,.6,.97,.9-.55,4.41,2.05,8.39,1.75,12.79-.04,.53,.76,1.12,1.16,1.68,.08,2.45-.11,4.96,1.51,7.09-.68,3.56,1.28,6.71,1.54,10.12,1.21,3.53,1.52,7.27,2.24,10.88,.7,3.5,1.95,6.97,1.93,10.62Z"/><path class="e" d="M886.45,687.1c-.4,.56-1.16,1.14-1.14,1.69,.1,3.84-.77,7.53-1.57,11.23-.61,4.66-1.46,9.26-2.94,13.73-.61,2.41-2.88,1.62-4.4,2.29-3.4,.52-6.88,.67-10.12,2.02-3.68-.07-7.16,1.17-10.76,1.6-7.23,1.36-14.57,2.14-21.67,4.17-3.25-.07-6.35,.93-9.5,1.51-7.43,1.38-14.97,2.22-22.27,4.28-4.25-.19-8.24,1.17-12.29,2.15-2.67,.19-5.32,.52-7.87,1.4l-1.51,.14c-4.28,.73-8.55,1.46-12.83,2.2l-1.48,.4c-6,1.06-12,2.12-18,3.18-3.64,.67-7.46,.49-10.9,2.15-1.35-.4-3.33,.86-3.99-.38-.75-1.4,.99-2.61,1.85-3.81,.54-.76,.96-1.6,1.44-2.4,.48-.72,.95-1.45,1.43-2.17,1.96-3.11,3.93-6.22,5.89-9.34,5.15-6.96,10.04-14.08,14.3-21.63l.7-.82c2.62-3.04,4.65-6.46,6.51-9.99,5.42-7.45,10.38-15.2,15.2-23.05,2.32-2.61,4.1-5.57,5.79-8.61,5.34-7.25,10.22-14.8,14.97-22.44l.85-1.33c1.93-2.91,3.86-5.83,5.79-8.74,4.84-7.44,10.28-14.48,14.48-22.33l.63-.67c2.21-3.37,4.97-6.37,6.57-10.13,5.14-6.7,9.58-13.87,14.11-20.99l2.34-3.55c1.62-2.42,3.24-4.84,4.86-7.25,4.76-7.1,9.7-14.1,13.97-21.52,1.44-.86,1.89-2.43,2.65-3.77,.58-.73,1.17-1.45,1.8-2.23,1.96,1.25,.37,4.27,2.69,5.24,.06,3.63,1.9,6.76,3.01,10.07,1.37,4.08,2.03,8.42,4.16,12.24,.41,5.1,2.8,9.71,3.58,14.72,1,6.42,3,12.62,3.91,19.1,.91,6.5,1.75,13.02,2.76,19.51-.03,1.16-.05,2.33-.08,3.49,.02,9.66,.04,19.32,.05,28.98,.02,.46,.05,.92,.07,1.39-.01,1.95-.03,3.9-.04,5.85,.65,4.65-1.91,8.98-1.4,13.62,.15,6.33-2.35,12.42-1.61,18.8Z"/></g><g transform="matrix(1, 0, 0, 1, -8.5, -5.5)"><ellipse id="d" class="i" cx="456.92" cy="227.8" rx="54.01" ry="61.73"/></g></g></svg>