<?xml version="1.0" encoding="utf-8"?>
<!-- Generator: Adobe Illustrator 26.0.3, SVG Export Plug-In . SVG Version: 6.00 Build 0)  -->
<svg version="1.1" id="Lag_1" xmlns="http://www.w3.org/2000/svg" xmlns:xlink="http://www.w3.org/1999/xlink" x="0px" y="0px"
	 viewBox="0 0 256 256" style="enable-background:new 0 0 256 256;" xml:space="preserve">
<style type="text/css">
	.st0{fill:#2AA2C2;}
	.st1{fill:#7958A1;}
	.st2{fill:#51AE3F;}
	.st3{fill:#FFEA09;}
	.st4{fill:#EA5160;}
	.st5{fill:#E2A31E;}
</style>
<g id="XMLID_00000018224978373922490800000016421499948979008402_">
	<g>
		<path class="st0" d="M238.53,63.41C249.63,82.37,256,104.44,256,128c0,23.57-6.37,45.65-17.48,64.61l-0.23-0.13L128,128
			l110.21-64.4L238.53,63.41z"/>
		<path class="st1" d="M238.53,63.41l-0.32,0.18L128,128V0.27V0C175.14,0,216.32,25.48,238.53,63.41z"/>
		<path class="st2" d="M238.28,192.48l0.23,0.13C216.3,230.54,175.13,256,128,256v-0.27V128L238.28,192.48z"/>
		<path class="st3" d="M128,255.73V256c-47.14,0-88.32-25.48-110.53-63.41l0.32-0.18L128,128V255.73z"/>
		<path class="st4" d="M128,0.27V128L17.71,63.52l-0.23-0.13C39.7,25.46,80.88,0,128,0V0.27z"/>
		<path class="st5" d="M17.71,63.52L128,128L17.78,192.4l-0.32,0.18C6.36,173.63,0,151.56,0,128c0-23.57,6.37-45.65,17.49-64.62
			L17.71,63.52z"/>
	</g>
	<g>
	</g>
</g>
</svg>
